<?xml version="1.0" encoding="UTF-8"?><!DOCTYPE svg PUBLIC "-//W3C//DTD SVG 1.1//EN" "http://www.w3.org/Graphics/SVG/1.1/DTD/svg11.dtd"><svg xmlns="http://www.w3.org/2000/svg"><symbol id="pcc-icon-ban" viewBox="0 0 64 64"><path d="M32 0C14.4 0 0 14.4 0 32s14.4 32 32 32 32-14.4 32-32S49.6 0 32 0zM8 32C8 18.7 18.7 8 32 8c5.3 0 10.1 1.7 14 4.5L12.5 46C9.7 42.1 8 37.3 8 32zm24 24c-5.3 0-10.1-1.7-14-4.5L51.5 18c2.8 3.9 4.5 8.7 4.5 14 0 13.3-10.7 24-24 24z"/></symbol><symbol id="pcc-icon-bold" viewBox="0 0 64 64"><path d="M0 0v8c4.4 0 8 3.6 8 8v32c0 4.4-3.6 8-8 8v8h44c11 0 20-9 20-20 0-8-4.7-14.8-11.5-18 2.2-2.7 3.5-6.2 3.5-10 0-8.8-7.1-16-16-16H0zm24 8h8c4.4 0 8 3.6 8 8s-3.6 8-8 8h-8V8zm0 24h12c6.6 0 12 5.4 12 12s-5.4 12-12 12H24V32z"/></symbol><symbol id="pcc-icon-calendar" viewBox="0 0 64 64"><path d="M0 0v64h64V0H0zm59.6 59.6H4.4V16.3h55.2v43.3zm-40.1-8h5.4V23.3h-4.4c-.6 1.7-1.8 3.2-3.4 4.5-1.7 1.3-3.2 2.2-4.6 2.6v4.9c2.7-.9 5-2.2 7-4.1v20.4zm21.3-9.5c2 0 3.7-.8 5.1-2.4-.2 3.2-.7 5.4-1.5 6.4s-1.7 1.5-2.8 1.5c-.9 0-1.6-.3-2.1-.8s-.9-1.3-1-2.4l-5.2.6c.4 2.3 1.3 4.1 2.6 5.3 1.4 1.2 3.1 1.8 5.3 1.8 3.1 0 5.6-1.1 7.5-3.4 1.9-2.3 2.9-6 2.9-11.2 0-5.1-.9-8.7-2.8-10.9-1.8-2.2-4.2-3.3-7-3.3-2.6 0-4.8.9-6.5 2.6-1.7 1.7-2.5 4-2.5 6.9 0 2.7.8 5 2.4 6.7 1.4 1.7 3.3 2.6 5.6 2.6zM38.9 29c.7-.8 1.5-1.2 2.5-1.2 1.1 0 2 .5 2.8 1.5.8 1 1.2 2.3 1.2 4.1 0 1.6-.4 2.8-1.1 3.6-.7.8-1.6 1.2-2.6 1.2-1.1 0-2-.4-2.7-1.3-.7-.9-1.1-2.2-1.1-4 0-1.9.3-3.2 1-3.9z"/></symbol><symbol id="pcc-icon-check" viewBox="0 0 64 64"><path d="M51.9 6.5l-5.5 5.8-22.3 22.3-6.5-6.3-5.8-5.8L.5 33.9l5.8 5.8 12 12 5.5 5.8 5.8-5.8 28.1-28.1 5.8-5.8L51.9 6.5z"/></symbol><symbol id="pcc-icon-checkbox" viewBox="0 0 64 64"><path d="M62 0H2C.9 0 0 .9 0 2v60c0 1.1.9 2 2 2h60c1.1 0 2-.9 2-2V2c0-1.1-.9-2-2-2zm-2 4v15.3l-10.2-10-4.9 5.2-20 19.8-5.8-5.6-5.1-5.1-10 10V4h56zM4 60V33.8l5 5 10.7 10.7 4.9 5.2 5.2-5.2 25.1-25.1 5.1-5.1V60H4z"/></symbol><symbol id="pcc-icon-checklist" viewBox="0 0 64 64"><path d="M14 2.7v8.4h50V2.7H14zm0 16.7v8.4h37.5v-8.4H14zm0 16.8v8.4h50v-8.4H14zm0 16.7v8.4h37.5v-8.4H14zM9.9 2.6l-.8.9L5.6 7l-1-1-1-.9-1.7 1.8.9.9 1.9 1.9.9.9.9-.9 4.4-4.4.9-.9-1.9-1.8zm0 16.9l-.9.9-3.5 3.5-1-1-.9-.9-1.8 1.8.9.9 1.9 1.9.9.9.9-.9 4.4-4.4.9-.9-1.8-1.8zm0 16.9l-.9.9-3.5 3.5-1-1-.9-.9-1.8 1.8.9.9 1.9 1.9.9.9.9-.9 4.4-4.4.9-.9-1.8-1.8zm0 16.4l-.9.9-3.5 3.5-1-1-.9-.9-1.8 1.8 1 .9 1.9 1.9.9.9.9-.9 4.4-4.4.9-.9-1.9-1.8z"/></symbol><symbol id="pcc-icon-circle-check" viewBox="0 0 64 64"><path d="M32 0C14.3 0 0 14.3 0 32s14.3 32 32 32 32-14.3 32-32S49.7 0 32 0zm16 14.2l5.8 5.8L28 45.8 14.2 32l5.8-5.8 8 8 20-20z"/></symbol><symbol id="pcc-icon-circle-star" viewBox="0 0 64 64"><path d="M32 0C14.3 0 0 14.3 0 32s14.3 32 32 32 32-14.3 32-32S49.7 0 32 0zm13.1 53L32 42.5 18.9 53l5.2-15.6L11 27h15.8L32 11.2 37.2 27H53L39.9 37.4 45.1 53z"/></symbol><symbol id="pcc-icon-combo-box" viewBox="0 0 64 64"><path d="M62 0H2C.9 0 0 .9 0 2v60c0 1.1.9 2 2 2h60c1.1 0 2-.9 2-2V2c0-1.1-.9-2-2-2zm-2 60H4V4h56v56zM59 9L32 55.8 5 9z"/></symbol><symbol id="pcc-icon-comment" viewBox="0 0 64 64"><path d="M63.2 0H.7C.3 0 0 .2 0 .7V64l16-16h47.3c.4 0 .7-.3.7-.7V.8c0-.4-.2-.7-.8-.8z"/></symbol><symbol id="pcc-icon-copy" viewBox="0 0 64 64"><path d="M58 12c0-1.1-.9-2-2-2H16c-1.1 0-2 .9-2 2v48c0 1.1.9 2 2 2h40c1.1 0 2-.9 2-2V12zm-9-8c0-1.1-.5-2-1.6-2H7.8C6.7 2 5 2.9 5 4v48.4C5 53.5 6.7 54 7.8 54H10V8.3C10 7.2 11.6 6 12.7 6H49V4z"/></symbol><symbol id="pcc-icon-document" viewBox="0 0 64 64"><path d="M4 0v64h56V32H28V0H4zm32 0v24h24L36 0z"/></symbol><symbol id="pcc-icon-download" viewBox="0 0 64 64"><path d="M24 0v24H8l24 24 24-24H40V0H24zM0 56v8h64v-8H0z"/></symbol><symbol id="pcc-icon-ellipses" viewBox="0 0 64 64"><path d="M0 24v16h16V24H0zm24 0v16h16V24H24zm24 0v16h16V24H48z"/></symbol><symbol id="pcc-icon-empty-circle" viewBox="0 0 64 64"><path d="M32 0C14.3 0 0 14.3 0 32s14.3 32 32 32 32-14.3 32-32S49.7 0 32 0zm0 57.6C17.9 57.6 6.4 46.1 6.4 32S17.9 6.4 32 6.4 57.6 17.9 57.6 32 46.1 57.6 32 57.6z"/></symbol><symbol id="pcc-icon-first-page" viewBox="0 0 64 64"><path d="M20 32l32 32V0zM11 0h8v64h-8z"/></symbol><symbol id="pcc-icon-folder" viewBox="0 0 64 64"><path d="M0 0v16h64V8H24V0H0zm0 24v36c0 2.2 1.8 4 4 4h56c2.2 0 4-1.8 4-4V24H0z"/></symbol><symbol id="pcc-icon-gear" viewBox="0 0 64 64"><path d="M28 0l-4 9.5c-.8.2-1.5.6-2.2 1l-9.5-4-5.7 5.7 4 9.5c-.4.8-.7 1.4-1 2.2L0 28v8l9.5 4c.3.8.6 1.4 1 2.2l-4 9.5 5.7 5.7 9.5-4c.7.3 1.4.7 2.2 1l4 9.5h8l4-9.5c.7-.3 1.5-.6 2.2-1l9.5 4 5.7-5.7-4-9.5 1-2.2 9.5-4v-8l-9.5-4c-.2-.7-.6-1.5-1-2.2l4-9.5-5.7-5.7-9.5 4-2.2-1L36 0h-8zm4 20c6.6 0 12 5.3 12 12s-5.3 12-12 12-12-5.3-12-12 5.4-12 12-12z"/></symbol><symbol id="pcc-icon-grid" viewBox="0 0 64 64"><path d="M0 0v24h24V0H0zm40 0v24h24V0H40zM0 40v24h24V40H0zm40 0v24h24V40H40z"/></symbol><symbol id="pcc-icon-hand" viewBox="0 0 64 64"><path d="M50.9 29.7c0-2.8-1.5-3.3-3.3-3.3s-3.3 1.5-3.3 3.3v12.7H43V7.2c0-1.8-1.5-3.3-3.3-3.3s-3.3 1.5-3.3 3.3v25.1h-1.3v-29C35.3 1.5 33.8 0 32 0s-3.3 1.5-3.3 3.3v29.1h-1.3V7.2c0-1.8-1.5-3.3-3.3-3.3s-3.3 1.5-3.3 3.3v27.1h-1.3V18.9c0-1.8-1.5-3.3-3.3-3.3-1.8 0-3.3 1.5-3.3 4.2V47c0 8.5 8.5 17 18.9 17 10.5 0 18.9-8.5 18.9-18.9l.2-15.4z"/></symbol><symbol id="pcc-icon-horizontal-align-center" viewBox="0 0 64 64"><path d="M28 0h8v64h-8zm-5 50c0-1.1-.9-2-2-2H2c-1.1 0-2 .9-2 2v12c0 1.1.9 2 2 2h19c1.1 0 2-.9 2-2V50zm0-48c0-1.1-.9-2-2-2H2C.9 0 0 .9 0 2v12c0 1.1.9 2 2 2h19c1.1 0 2-.9 2-2V2zM13 26c0-1.1-.9-2-2-2H2c-1.1 0-2 .9-2 2v12c0 1.1.9 2 2 2h9c1.1 0 2-.9 2-2V26zm51 24c0-1.1-.9-2-2-2H43c-1.1 0-2 .9-2 2v12c0 1.1.9 2 2 2h19c1.1 0 2-.9 2-2V50zm0-48c0-1.1-.9-2-2-2H43c-1.1 0-2 .9-2 2v12c0 1.1.9 2 2 2h19c1.1 0 2-.9 2-2V2zm0 24c0-1.1-.9-2-2-2h-9c-1.1 0-2 .9-2 2v12c0 1.1.9 2 2 2h9c1.1 0 2-.9 2-2V26z"/></symbol><symbol id="pcc-icon-horizontal-align-left" viewBox="0 0 64 64"><path d="M20 50.2V62c0 1.1.8 2 1.9 2h35.8c1.1 0 2.3-.9 2.3-2V50.2c0-1.1-1.2-2.2-2.3-2.2H21.9c-1.1 0-1.9 1.1-1.9 2.2zm0-24V38c0 1.1.9 2.1 2 2.1h19.9c1.1 0 2.1-1 2.1-2.1V26.2c0-1.1-1-2.2-2.1-2.2H22c-1.1 0-2 1.1-2 2.2zM20 2v11.8c0 1.1.9 2.2 2 2.2h35.8c1.1 0 2.2-1.1 2.2-2.2V2c0-1.1-1.1-2-2.2-2H22c-1.1 0-2 .9-2 2zM4 0h8v64H4z"/></symbol><symbol id="pcc-icon-horizontal-align-right" viewBox="0 0 64 64"><path d="M44 13.8V2c0-1.1-.8-2-1.9-2H6.3C5.2 0 4 .9 4 2v11.8C4 14.9 5.2 16 6.3 16h35.8c1.1 0 1.9-1.1 1.9-2.2zm0 24V26.1c0-1.1-.9-2.1-2-2.1H22.1C21 24 20 25 20 26.1v11.8c0 1.1 1 2.2 2.1 2.2H42c1.1-.1 2-1.2 2-2.3zM44 62V50.2c0-1.1-.9-2.2-2-2.2H6.2C5.1 48 4 49.1 4 50.2V62c0 1.1 1.1 2 2.2 2H42c1.1 0 2-.9 2-2zm8-62h8v64h-8z"/></symbol><symbol id="pcc-icon-initials" viewBox="0 0 64 64"><path d="M45.1.6c1-.4 2.3-.7 4.1-.7 1.8 0 3.3.1 4.7.4-1.4 12.8-2.6 24.4-3.4 34.7-.8 10.4-1.3 15.8-1.3 16.4-.1.6-.1 1.1-.1 1.5 0 1.4.6 2.2 1.7 2.2 2.8 0 6.6-3.8 11.6-11.5.9 2.9 1.4 4.9 1.5 5.9-2.2 4.2-4.9 7.7-8 10.4-3.1 2.7-6.1 4-8.9 4-2.8 0-4.7-.9-5.8-2.6-1.1-1.7-1.6-3.6-1.6-5.8 0-.5.1-1.5.2-2.9s1-10.4 2.7-27L31.3 57.3h-5.9L22 26.2 17.1 52c-.8 4.1-2.1 7.1-3.9 9.1C11.4 63 9.5 64 7.3 64c-2.1 0-3.9-.8-5.2-2.3C.7 60.2 0 58 0 55c0-5.9 3.8-10.9 11.4-15.1C15.5 16.2 17.7 3 18.1.5c1.1-.4 2.6-.5 4.4-.5 1.9 0 3.2.1 3.9.2h.5L31.2 39 45.1 1.1V.6zm-40.2 53c0 1.8.6 2.7 1.7 2.7.8 0 1.4-.8 1.9-2.3.6-1.8 1.2-4.3 1.6-7.3-3.4 2.4-5.2 4.7-5.2 6.9z"/></symbol><symbol id="pcc-icon-italic" viewBox="0 0 64 64"><path d="M20 0v8h13l-.5 1-16 40-2.7 7H4.1v8h40v-8H31l.5-1 16-40 2.7-7h9.7V0H20z"/></symbol><symbol id="pcc-icon-last-page" viewBox="0 0 64 64"><path d="M44 32L12 64V0zm1-32h8v64h-8z"/></symbol><symbol id="pcc-icon-loading" viewBox="0 0 64 64"><circle cx="32" cy="6" r="6"/><circle opacity=".4" cx="32" cy="58" r="6"/><circle opacity=".1" cx="6" cy="32" r="6"/><circle opacity=".7" cx="58" cy="32" r="6"/><circle opacity=".55" cx="50.385" cy="50.385" r="6"/><circle opacity=".25" cx="13.615" cy="50.385" r="6"/><circle opacity=".85" cx="50.385" cy="13.615" r="6"/></symbol><symbol id="pcc-icon-magic-wand" viewBox="0 0 64 64"><path d="M2.7 63.4L.6 61.3c-.8-.8-.8-2.1 0-2.8l42.3-42.3c.8-.8 2.1-.8 2.8 0l2.1 2.1c.8.8.8 2.1 0 2.8L5.5 63.4c-.7.8-2 .8-2.8 0zm45.8-45.7l-2.1-2.1c-.8-.8-.8-2.1 0-2.8l3.2-3.2c.8-.8 2.1-.8 2.8 0l2.1 2.1c.8.8.8 2.1 0 2.8l-3.2 3.2c-.8.8-2 .8-2.8 0zm2.8-10.6c-.3 0-.5-.2-.5-.5V.5c0-.3.2-.5.5-.5s.5.2.5.5v6.1c0 .3-.2.5-.5.5zm-4.7 2.1c-.2.2-.5.2-.7 0L37.6.9c-.2-.2-.2-.5 0-.7.2-.2.5-.2.7 0l8.3 8.3c.2.2.2.5 0 .7zm-3 3.7c0 .3-.2.5-.5.5H36c-.3 0-.5-.2-.5-.5s.2-.5.5-.5h7.1c.2 0 .5.2.5.5zm20.4.2c0 .3-.2.5-.5.5h-5.6c-.3 0-.5-.2-.5-.5s.2-.5.5-.5h5.6c.3 0 .5.2.5.5zM51.3 27.4c-.3 0-.5-.2-.5-.5v-6.1c0-.3.2-.5.5-.5s.5.2.5.5v6.1c0 .3-.2.5-.5.5zm12.6-1.5c-.2.2-.5.2-.7 0l-8.3-8.3c-.2-.2-.2-.5 0-.7.2-.2.5-.2.7 0l8.3 8.3c.1.2.1.5 0 .7zm-9-16.8c.2.2.5.2.7 0L63.9.8c.2-.2.2-.5 0-.7-.2-.2-.5-.2-.7 0l-8.3 8.3c-.2.2-.2.6 0 .7z"/></symbol><symbol id="pcc-icon-match-size-horizontal" viewBox="0 0 64 64"><path d="M24.89 36H50v10.222L64.187 32 50 17.778V28H14V17.778L-.187 32 14 46.222V36z"/></symbol><symbol id="pcc-icon-match-size-vertical" viewBox="0 0 64 64"><path d="M36 39.11V14h10.222L32-.187 17.778 14H28v36H17.778L32 64.187 46.222 50H36z"/></symbol><symbol id="pcc-icon-menu" viewBox="0 0 64 64"><path d="M0 4.1v8h64v-8H0zm0 23.8v8h64v-8H0zm0 24v8h64v-8H0z"/></symbol><symbol id="pcc-icon-minus" viewBox="0 0 64 64"><path d="M0 24v16h64V24H0z"/></symbol><symbol id="pcc-icon-next-page" viewBox="0 0 64 64"><path d="M16 64l32-32L16 0v64z"/></symbol><symbol id="pcc-icon-plus" viewBox="0 0 64 64"><path d="M24 0v24H0v16h24v24h16V40h24V24H40V0H24z"/></symbol><symbol id="pcc-icon-previous-page" viewBox="0 0 64 64"><path d="M48 0L16 32l32 32V0z"/></symbol><symbol id="pcc-icon-printer" viewBox="0 0 64 64"><path d="M16 0v16h32V0H16zM.7 24c-.5 0-.7.3-.7.7v22.5c0 .4.3.7.7.7H8v-16h48v16h7.3c.4 0 .7-.3.7-.7V24.7c0-.5-.3-.7-.7-.7H.7zM16 40v24h32V40H16z"/></symbol><symbol id="pcc-icon-radio-button" viewBox="0 0 64 64"><path d="M32 16c-8.8 0-16 7.2-16 16s7.2 16 16 16 16-7.2 16-16-7.2-16-16-16zm0-16C14.3 0 0 14.3 0 32s14.3 32 32 32 32-14.3 32-32S49.7 0 32 0zm0 57.6C17.9 57.6 6.4 46.1 6.4 32S17.9 6.4 32 6.4 57.6 17.9 57.6 32 46.1 57.6 32 57.6z"/></symbol><symbol id="pcc-icon-reorder-handle" viewBox="0 0 64 64"><path d="M0 42.667h64v-7.11H0v7.11zM0 56.89h64v-7.112H0v7.11zm0-28.445h64v-7.11H0v7.11zM0 7.112v7.11h64v-7.11H0z"/></symbol><symbol id="pcc-icon-retry" viewBox="0 0 64 64"><path d="M32 8C18.8 8 8 18.8 8 32H0l12 16 12-16h-8c0-8.9 7.1-16 16-16V8zm20 8L40 32h8c0 8.9-7.1 16-16 16v8c13.2 0 24-10.8 24-24h8L52 16z"/></symbol><symbol id="pcc-icon-save" viewBox="0 0 64 64"><path d="M27 0h16v12H27zm23 0v19H14V0H2v64h6V28h48v36h6V0zM14 33h36v31H14z"/></symbol><symbol id="pcc-icon-settings" viewBox="0 0 64 64"><path d="M16 2c0-1.1-.9-2-2-2h-4C8.9 0 8 .9 8 2v26H4v8h4v26c0 1.1.9 2 2 2h4c1.1 0 2-.9 2-2V36h4v-8h-4V2zm20 0c0-1.1-1-2-2.1-2h-4C28.8 0 28 .9 28 2v38h-4v8h4v14c0 1.1.8 2 1.9 2h4c1.1 0 2.1-.9 2.1-2V48h4v-8h-4V2zm20 12V2c0-1.1-1-2-2.1-2h-4C48.8 0 48 .9 48 2v12h-4v8h4v40c0 1.1.8 2 1.9 2h4c1.1 0 2.1-.9 2.1-2V22h4v-8h-4z"/></symbol><symbol id="pcc-icon-signature" viewBox="0 0 64 64"><path d="M54.3 29.2l-9.7-9.7-9.7-9.7-24.1 16.8C9.2 44.2 0 56.8 0 56.8l2.6 2.6 16.8-16.8c-1.2-2.1-.9-4.8.9-6.5 2.1-2.1 5.6-2.1 7.7 0 2.1 2.1 2.1 5.6 0 7.7-1.8 1.8-4.4 2.1-6.5.9L4.6 61.4 7.2 64s12.7-9.2 30.2-10.8l16.9-24zm1.976-2.056L36.83 7.7 44.54-.01l19.445 19.445z"/></symbol><symbol id="pcc-icon-sort" viewBox="0 0 64 64"><path d="M46.222 49.813V24.89h-7.11v24.923H28.443L42.666 64l14.222-14.187H46.22zM21.332 0L7.113 14.187h10.666V39.11h7.11V14.188h10.668L21.334 0z"/></symbol><symbol id="pcc-icon-star" viewBox="0 0 64 64"><path d="M32 0l-8 24H0l20 16-8 24 20-16 20 16-8-24 20-16H40L32 0z"/></symbol><symbol id="pcc-icon-strikethrough" viewBox="0 0 64 64"><path d="M64 28H43.3c-1.7-1-3.8-2.1-6.2-3.2-5-2.3-8.3-3.9-9.8-4.8-1.5-.9-2.8-2-3.7-3.3-.9-1.3-1.4-2.8-1.4-4.3 0-2 .7-3.7 2.1-5 1.4-1.3 3.3-2 5.7-2 3.2 0 6 1.2 8.6 3.8 2.5 2.6 4.3 5.8 5.2 9.8H49V1h-5.3c-.4 2-.9 3.3-1.5 4.2C38.5 1.7 34.1 0 28.8 0c-5 0-9.4 1.7-13.2 5.2-3.8 3.4-5.7 7.8-5.7 13.1 0 3.3.7 6.2 2.2 8.8.2.3.4.6.6 1H0v8h22.7c2.5 1.4 5.7 3 9.6 5 3.6 1.8 5.9 3.5 6.9 5s1.5 3 1.5 4.5c0 2.1-.8 3.9-2.3 5.5-1.5 1.5-3.6 2.3-6.2 2.3-3.5 0-6.8-1.1-9.8-3.8-3-2.7-5.3-7.3-6.8-13.3H10v21h5.4c.3-2 .8-3.8 1.5-5.2 1.8 2.2 4.2 3.9 7.3 5.2 3 1.3 6.2 2 9.3 2 5.6 0 10.4-1.8 14.4-5.5 4-3.6 6-8.2 6-13.6 0-2.9-.6-5.7-1.9-8.2l-.4-.8H64V28z"/></symbol><symbol id="pcc-icon-text-align-center" viewBox="0 0 64 64"><path d="M0 4v8h64V4H0zm8 16v8h48v-8H8zM0 36v8h64v-8H0zm8 16v8h48v-8H8z"/></symbol><symbol id="pcc-icon-text-align-left" viewBox="0 0 64 64"><path d="M0 4v8h64V4H0zm0 16v8h48v-8H0zm0 16v8h64v-8H0zm0 16v8h48v-8H0z"/></symbol><symbol id="pcc-icon-text-align-right" viewBox="0 0 64 64"><path d="M0 4v8h64V4H0zm16 16v8h48v-8H16zM0 36v8h64v-8H0zm16 16v8h48v-8H16z"/></symbol><symbol id="pcc-icon-text-box" viewBox="0 0 64 64"><path d="M0 0v16h4c0-4.4 3.6-8 8-8h12v44c0 2.2-1.8 4-4 4h-4v8h32v-8h-4c-2.2 0-4-1.8-4-4V8h12c4.4 0 8 3.6 8 8h4V0H0z"/></symbol><symbol id="pcc-icon-thunderbolt" viewBox="0 0 64 64"><path d="M64 20.6H34.3L54.9 0h-32L0 32h25.1L6.9 64z"/></symbol><symbol id="pcc-icon-trash" viewBox="0 0 64 64"><path d="M44.6 3c-1.2-1-2.1-1.6-3.5-3H22.9c-1.4 1.4-2.2 2-3.5 3H7v8h50V3H44.6zM11 60c0 2.2 1.4 4 3.6 4h34.9c2.2 0 3.6-1.8 3.6-4V14H11v46z"/></symbol><symbol id="pcc-icon-underline" viewBox="0 0 64 64"><path d="M11 9.8v19.4c0 3.1.3 5.7.9 8 .6 2.2 1.7 4.3 3.3 6.2 1.6 1.9 3.9 3.5 6.9 4.7S28.5 50 32.3 50c3.6 0 6.9-.6 9.9-1.9s5.3-2.9 7-5c1.7-2.1 2.7-4.2 3.2-6.5.4-2.2.6-5.1.6-8.7V11.6c0-1.9.2-3.4.7-4.4.4-1.1 1.1-1.9 2.2-2.5 1.1-.6 2.1-.9 3.1-.9V0H41v3.8c5 0 8 2.5 8 7.5v16.5c0 3.9-.6 7-1.2 9.2-.6 2.2-2.2 4-4.3 5.6-2.1 1.5-4.7 2.3-7.7 2.3-2.7 0-5.1-.7-7.1-2.1-2-1.4-3.2-3.2-3.8-5.2-.6-2-.9-4.8-.9-8.3V9.8c0-2.2.4-3.7 1.1-4.6.7-.9 2.3-1.2 4.7-1.2H31V0H5v3.8c2 0 4.2.4 5 1.3.8.8 1 2.4 1 4.7zM1 56h62v8H1z"/></symbol><symbol id="pcc-icon-upload" viewBox="0 0 64 64"><path d="M40 64V40h16L32 16 8 40h16v24h16zM64 8V0H0v8h64z"/></symbol><symbol id="pcc-icon-user" viewBox="0 0 64 64"><path d="M32 0c-8.8 0-16 9-16 20s7.2 20 16 20 16-9 16-20S40.8 0 32 0zM15.3 40C6.8 40.4 0 47.4 0 56v8h64v-8c0-8.6-6.7-15.6-15.3-16-4.3 4.9-10.2 8-16.7 8s-12.4-3.1-16.7-8z"/></symbol><symbol id="pcc-icon-vertical-align-bottom" viewBox="0 0 64 64"><path d="M50.2 48H62c1.1 0 2-.8 2-1.9V10.3c0-1.1-.9-2.3-2-2.3H50.2C49.1 8 48 9.2 48 10.3v35.8c0 1.1 1.1 1.9 2.2 1.9zm-24 0H38c1.1 0 2.1-.9 2.1-2V26.1c0-1.1-1-2.1-2.1-2.1H26.2c-1.1 0-2.2 1-2.2 2.1V46c0 1.1 1.1 2 2.2 2zM2 48h11.8c1.1 0 2.2-.9 2.2-2V10.2C16 9.1 14.9 8 13.8 8H2C.9 8 0 9.1 0 10.2V46c0 1.1.9 2 2 2zm-2 8h64v8H0z"/></symbol><symbol id="pcc-icon-vertical-align-center" viewBox="0 0 64 64"><path d="M0 28h64v8H0zM16 2c0-1.1-.9-2-2-2H2C.9 0 0 .9 0 2v19c0 1.1.9 2 2 2h12c1.1 0 2-.9 2-2V2zm48 0c0-1.1-.9-2-2-2H50c-1.1 0-2 .9-2 2v19c0 1.1.9 2 2 2h12c1.1 0 2-.9 2-2V2zM40 2c0-1.1-.9-2-2-2H26c-1.1 0-2 .9-2 2v9c0 1.1.9 2 2 2h12c1.1 0 2-.9 2-2V2zM16 43c0-1.1-.9-2-2-2H2c-1.1 0-2 .9-2 2v19c0 1.1.9 2 2 2h12c1.1 0 2-.9 2-2V43zm48 0c0-1.1-.9-2-2-2H50c-1.1 0-2 .9-2 2v19c0 1.1.9 2 2 2h12c1.1 0 2-.9 2-2V43zM40 53c0-1.1-.9-2-2-2H26c-1.1 0-2 .9-2 2v9c0 1.1.9 2 2 2h12c1.1 0 2-.9 2-2v-9z"/></symbol><symbol id="pcc-icon-vertical-align-top" viewBox="0 0 64 64"><path d="M13.8 16H2c-1.1 0-2 .8-2 1.9v35.8C0 54.8.9 56 2 56h11.8c1.1 0 2.2-1.2 2.2-2.3V17.9c0-1.1-1.1-1.9-2.2-1.9zm24 0H26.1c-1.1 0-2.1.9-2.1 2v19.9c0 1.1 1 2.1 2.1 2.1h11.8c1.1 0 2.2-1 2.2-2.1V18c-.1-1.1-1.2-2-2.3-2zM62 16H50.2c-1.1 0-2.2.9-2.2 2v35.8c0 1.1 1.1 2.2 2.2 2.2H62c1.1 0 2-1.1 2-2.2V18c0-1.1-.9-2-2-2zM0 0h64v8H0z"/></symbol><symbol id="pcc-icon-warning" viewBox="0 0 64 64"><path d="M28.8 0c-.5 0-.8.3-1 .7L4.2 55.3c-.2.4-.2 1-.2 1.5v6.5c0 .4.3.7.7.7h54.5c.4 0 .7-.3.7-.7v-6.5c0-.4-.1-1.1-.2-1.5L36.2.7c-.2-.4-.6-.7-1-.7h-6.5.1zm-.7 24h8v16h-8V24zm0 24.1h8v8h-8v-8z"/></symbol><symbol id="pcc-icon-x" viewBox="0 0 64 64"><path d="M12.1 1L1 12.1l5.7 5.7 14.1 14.3L6.7 46.2 1 51.6 12.1 63l5.7-5.7L32.1 43l14.1 14.3 5.4 5.7L63 51.6l-5.7-5.4L43 32.1l14.3-14.3 5.7-5.7L51.6 1l-5.4 5.7-14.1 14-14.3-14L12.1 1z"/></symbol></svg>